<svg xmlns:dc="http://purl.org/dc/elements/1.1/" xmlns:cc="http://creativecommons.org/ns#" xmlns:rdf="http://www.w3.org/1999/02/22-rdf-syntax-ns#" xmlns:svg="http://www.w3.org/2000/svg" xmlns="http://www.w3.org/2000/svg" xmlns:sodipodi="http://sodipodi.sourceforge.net/DTD/sodipodi-0.dtd" xmlns:inkscape="http://www.inkscape.org/namespaces/inkscape" version="1.1" x="0px" y="0px" viewBox="0 0 100 100">
  <g transform="translate(0,-952.36218)"><path d="m 26,956.36243 c -6.5315,0 -12,5.46853 -12,12 l 0,69.99977 c 0,5.4882 4.5119,10 10,10 l 59,0 c 1.5708,-10e-5 2.9998,-1.4292 3,-3 l 0,-67.99977 c -0.01,-1.76116 -1.2842,-3.01562 -3,-3 -2.8865,0 -6,-3.11347 -6,-6 0,-2.88653 3.1135,-6 6,-6 1.5849,0.0224 3,-1.4149 3,-3 0,-1.5851 -1.4151,-3.02241 -3,-3 z m 0,6 46.6562,0 c -1.0474,1.7749 -1.6562,3.82799 -1.6562,6 0,2.17201 0.6088,4.2251 1.6562,6 l -46.6562,0 c -2.8865,0 -6,-3.11347 -6,-6 0,-2.88653 3.1135,-6 6,-6 z m -6,16.34375 c 1.7732,1.0448 3.831,1.65625 6,1.65625 l 54,0 0,61.99977 -56,0 c -2.2679,0 -4,-1.7321 -4,-4 z" style="text-indent:0;text-transform:none;direction:ltr;block-progression:tb;baseline-shift:baseline;color:#000000;enable-background:accumulate;" fill="#6366F1" fill-opacity="1" stroke="none" marker="none" visibility="visible" display="inline" overflow="visible"/></g>
</svg>
