<svg xmlns="http://www.w3.org/2000/svg" xmlns:xlink="http://www.w3.org/1999/xlink" version="1.1" x="0px" y="0px" viewBox="0 0 100 125" enable-background="new 0 0 100 100" xml:space="preserve"><g><polygon fill="#000000" points="12.6,19.4 54.6,35.2 54.6,27 12.6,11.7  "/><polygon fill="#000000" points="56.3,26.8 56.3,35.2 87.4,24.9 87.4,17.2  "/><polygon fill="#000000" points="43.2,7.4 79,17.7 82.5,16.7 43.2,5 18.6,11.2 22.4,12.4  "/><polygon fill="#000000" points="12.6,48.6 54.6,66 54.6,62.6 12.6,45.2  "/><polygon fill="#000000" points="56.3,66 87.4,53.4 87.4,50.3 56.3,62.6  "/><path fill="#000000" d="M15.9,44.5l38.8,15.8V37.4L15.9,22.9V44.5z M45.7,39.8l3.6,1.3v12.2l-3.6-1.6V39.8z M36.9,36.5l3.6,1.3   v12.2l-3.6-1.6V36.5z M28.4,33l3.6,1.3v12.2l-3.6-1.6V33z M20.2,29.8l3.6,1.3v12.2l-3.6-1.6V29.8z"/><path fill="#000000" d="M85.1,27.9l-28.8,9.7v22.8L85.1,49V27.9z M65.8,51.1l-3.6,1.6V40.6l3.6-1.3V51.1z M78.9,46.8l-3.6,1.6V36.2   l3.6-1.3V46.8z"/><path fill="#000000" d="M85.1,56.4L56.3,68.2v21.1l28.8-14.2V56.4z M65.9,80.6l-3.6,1.6V70.1l3.6-1.3V80.6z M79,74.6l-3.6,1.6V64.1   l3.6-1.3V74.6z"/><polygon fill="#000000" points="56.3,95 87.4,78.9 87.4,75.5 56.3,91  "/><path fill="#000000" d="M35.6,82.8c0-0.2,0.2-0.5,0.4-0.5l3-0.9l-11.3-5.3l-4,1.1v2.5l11.8,5.9V82.8z"/><path fill="#000000" d="M23.1,80.6l-3.5,0.5V84l11.8,6v-2.2c0-0.2,0.2-0.5,0.4-0.5l2.8-0.9L23.1,80.6z"/><path fill="#000000" d="M39.5,82.4l-2.8,0.8v3.3c0,0,0,0,0,0c0,0,0,0,0,0.1c0,0,0,0.1,0,0.1c0,0,0,0,0,0c0,0,0,0,0,0c0,0,0,0,0,0.1   c0,0,0,0-0.1,0.1c0,0,0,0,0,0c0,0-0.1,0-0.1,0.1c0,0,0,0,0,0l-3.7,1.1v2l7.4-2.1v-5.5v-0.3L39.5,82.4L39.5,82.4z"/><path fill="#000000" d="M15.9,71.7l9,4.1l2.8-0.7c0.1,0,0.3,0,0.4,0l0.4,0.2V60.9l5.2,2.2v14.5l0.9,0.5V63.5l6.1,2.5v15l0.2,0.1   c0,0,0,0,0.1,0c0,0,0,0,0,0c0,0,0,0,0,0c0.1,0,0.1,0.1,0.1,0.2c0,0,0,0,0,0c0,0.1,0,0.1,0,0.2c0,0,0,0,0,0v1.6l13.6,6.2V68.2   L15.9,52.4V71.7z M45.7,69.3l3.6,1.3v12.2l-3.6-1.6V69.3z M20.2,58.2l3.6,1.3v12.2l-3.6-1.6V58.2z"/><path fill="#000000" d="M41.1,88.5c0,0.1,0,0.2-0.1,0.2L54.6,95v-4l-13.6-6.1V88.5z"/><path fill="#000000" d="M22.7,79.6v-2.8c0-0.1,0-0.1,0-0.2L12.6,72v3.7l8.9,4.1L22.7,79.6z"/></g></svg>