<svg xmlns:dc="http://purl.org/dc/elements/1.1/" xmlns:cc="http://creativecommons.org/ns#" xmlns:rdf="http://www.w3.org/1999/02/22-rdf-syntax-ns#" xmlns:svg="http://www.w3.org/2000/svg" xmlns="http://www.w3.org/2000/svg" xmlns:sodipodi="http://sodipodi.sourceforge.net/DTD/sodipodi-0.dtd" xmlns:inkscape="http://www.inkscape.org/namespaces/inkscape" version="1.1" x="0px" y="0px" viewBox="0 0 100 100"><g transform="translate(0,-952.36218)"><path fill="#6366F1" style="font-size:medium;font-style:normal;font-variant:normal;font-weight:normal;font-stretch:normal;text-indent:0;text-align:start;text-decoration:none;line-height:normal;letter-spacing:normal;word-spacing:normal;text-transform:none;direction:ltr;block-progression:tb;writing-mode:lr-tb;text-anchor:start;baseline-shift:baseline;opacity:1;fill-opacity:1;stroke:none;stroke-width:3.99999976000000010;marker:none;visibility:visible;display:inline;overflow:visible;enable-background:accumulate;font-family:Sans;-inkscape-font-specification:Sans" d="M 13.5625 18 C 9.411317 18 6 21.38007 6 25.53125 L 6 74.4375 C 6 78.5887 9.4113083 82 13.5625 82 L 78.96875 82 A 2.0001998 2.0001998 0 1 0 78.96875 78 L 13.5625 78 C 11.55814 78 10 76.4419 10 74.4375 L 10 37 L 90 37 L 90 74.4375 C 90 76.4419 88.44186 78 86.4375 78 A 2.0001998 2.0001998 0 1 0 86.4375 82 C 90.588692 82 94 78.5887 94 74.4375 L 94 25.53125 C 94 21.38007 90.588683 18 86.4375 18 L 13.5625 18 z M 13.5625 22 L 86.4375 22 C 88.441869 22 90 23.52687 90 25.53125 L 90 33 L 10 33 L 10 25.53125 C 10 23.52687 11.558131 22 13.5625 22 z M 19.5 25 C 18.119288 25 17 26.119288 17 27.5 C 17 28.880712 18.119288 30 19.5 30 C 20.880712 30 22 28.880712 22 27.5 C 22 26.119288 20.880712 25 19.5 25 z M 27.75 25 C 26.369288 25 25.25 26.119288 25.25 27.5 C 25.25 28.880712 26.369288 30 27.75 30 C 29.130712 30 30.25 28.880712 30.25 27.5 C 30.25 26.119288 29.130712 25 27.75 25 z M 36 25 C 34.619288 25 33.5 26.119288 33.5 27.5 C 33.5 28.880712 34.619288 30 36 30 C 37.380712 30 38.5 28.880712 38.5 27.5 C 38.5 26.119288 37.380712 25 36 25 z M 52.96875 43.28125 A 2.0001999 2.0001999 0 0 0 51.125 44.84375 L 45 69.28125 A 2.0001999 2.0001999 0 1 0 48.875 70.25 L 55 45.8125 A 2.0001999 2.0001999 0 0 0 53.15625 43.28125 A 2.0001999 2.0001999 0 0 0 52.96875 43.28125 z M 38.25 47.125 A 2.0002 2.0002 0 0 0 37.34375 47.34375 L 19.9375 55.6875 A 2.0002 2.0002 0 0 0 19.9375 59.28125 L 37.34375 67.625 A 2.0059117 2.0059117 0 1 0 39.0625 64 L 25.40625 57.5 L 39.0625 50.96875 A 2.0002 2.0002 0 0 0 38.25 47.125 z M 61.6875 47.125 A 2.0002 2.0002 0 0 0 60.9375 50.96875 L 74.59375 57.5 L 60.9375 64 A 2.0059117 2.0059117 0 1 0 62.65625 67.625 L 80.0625 59.28125 A 2.0002 2.0002 0 0 0 80.0625 55.6875 L 62.65625 47.34375 A 2.0002 2.0002 0 0 0 61.6875 47.125 z " transform="translate(0,952.36218)"/></g></svg>