<svg xmlns="http://www.w3.org/2000/svg" viewBox="0 0 100 125" x="0px" y="0px"><title>Adventure</title><g data-name="Layer 2"><path d="M84.67169,60.32385a1,1,0,0,0-1.84588-.03857l-4.3689,9.90289L71.99738,54.67468a1,1,0,0,0-1.84626-.00024L56.0769,88.45227a1,1,0,0,0,1.8462.76929V89.2215l8.89978-21.35932,3.75634,2.14a.99919.99919,0,0,0,.99115-.00061l3.75006-2.143,1.98,4.75531a.92588.92588,0,0,0,.05218.07733L70.1593,88.99622a1,1,0,0,0,1.8299.80731h-.00006L78.75006,74.4787l4.49573,2.56061a.99876.99876,0,0,0,.99084-.00055l3.95581-2.259L94.069,89.765a1,1,0,0,0,1.862-.73016ZM71.07343,67.98193,67.598,66.002l3.47595-8.34222,3.47174,8.33795Zm12.66662,7.03724-4.17847-2.37989,4.12482-9.34973,3.76807,9.60852Z"/><path d="M27,42a1,1,0,0,0,2,0V35.37183l3.41876,2.44189a1,1,0,1,0,1.16248-1.62744L29,32.91406V31.08618l3.41876,2.4419a1,1,0,0,0,1.16248-1.62745L29,28.62842V26.80017l3.4187,2.4422A1,1,0,1,0,33.5813,27.615l-5-3.57178a1068.77127,1068.77127,0,0,0-.23206-.11578.99888.99888,0,0,0-.33661-.06793L28,23.85693l-.01263.00257a.99888.99888,0,0,0-.33661.06793,1068.77127,1068.77127,0,0,0-.23206.11578l-5,3.57178a1,1,0,0,0,1.1626,1.62744v-.00006L27,26.80017v1.82825l-4.19989,2.99981-1.54565-1.10418a.9826.9826,0,0,0,.55926-.37152,1,1,0,0,0-.23248-1.395L17,25.48535V23.65747l3.41876,2.4419a1,1,0,0,0,1.16248-1.62745L17,21.19971V19.37183l3.41876,2.44189a1,1,0,1,0,1.16248-1.62744l-5-3.57135a438.62585,438.62585,0,0,1-.23206-.11578.99731.99731,0,0,0-.33655-.06788L16,16.42871l-.01263.00256a.99767.99767,0,0,0-.33661.06794.95218.95218,0,0,0-.10779.05377.965.965,0,0,0-.12421.06195l-5,3.57129a1,1,0,0,0,1.16248,1.6275L15,19.37183v1.82788l-4.58124,3.27215a1,1,0,0,0,1.16248,1.62751L15,23.65747v1.82788l-4.58124,3.27216a1,1,0,0,0,1.16248,1.6275L15,27.94312v5.25659l-.5813.41528a1,1,0,0,0-.23242,1.395.98577.98577,0,0,0,1.1897.3244.982.982,0,0,0,.624.23688,1,1,0,0,0,1-1v-.34241l2-1.42871v1.82825l-4.58124,3.27215a1,1,0,0,0,1.16248,1.62751L19,37.08618v1.82788l-4.58124,3.27216a1,1,0,0,0,1.16248,1.6275L19,41.37183V48a1,1,0,0,0,2,0V41.37183l3.41876,2.44189a1,1,0,0,0,1.16248-1.62744L21,38.91406V37.08618l3.41876,2.4419a1,1,0,0,0,1.16248-1.62745l-1.06085-.75775L27,35.37183ZM17,27.94312,19.73688,29.898c-.02948.00806-.05731.01874-.08612.02948a1068.77127,1068.77127,0,0,0-.23206.11578L17,31.771Zm4,6.6853V32.80017l3.07947,2.19989-1.2796.91394Zm4.75629-.826a.96548.96548,0,0,0-.175-.18738l-1.06079-.75781L27,31.08618v1.82788Z"/><path d="M56.94727,27.79346A4.471,4.471,0,0,1,59.5,27h.68408a1,1,0,0,0,0-2H59.5a6.46317,6.46317,0,0,0-3.68945,1.148,1,1,0,1,0,1.13672,1.64551Z"/><path d="M57.25879,50H61.2627a1,1,0,0,0,0-2H57.25879a1,1,0,0,0,0,2Z"/><path d="M61.21729,14a1,1,0,0,0,0-2H57.21338a1,1,0,0,0,0,2Z"/><path d="M68.15381,15.38867a.99987.99987,0,1,0,1.3291-1.49414,7.44692,7.44692,0,0,0-4.15381-1.8501,1.00019,1.00019,0,1,0-.21972,1.98828A5.45883,5.45883,0,0,1,68.15381,15.38867Z"/><path d="M65.2666,50h4.00391a1,1,0,0,0,0-2H65.2666a1,1,0,0,0,0,2Z"/><path d="M79.27246,46.03711a.99877.99877,0,0,0,1.28662-.5874,7.02893,7.02893,0,0,0,.10987-4.582,1,1,0,0,0-1.90528.60839,5.02655,5.02655,0,0,1-.07861,3.27442A1.00047,1.00047,0,0,0,79.27246,46.03711Z"/><path d="M55.11035,34.96143a.99984.99984,0,0,0,.41309-1.35254,4.523,4.523,0,0,1-.396-3.17823,1,1,0,0,0-1.94336-.47265,6.52312,6.52312,0,0,0,.57373,4.59033,1,1,0,0,0,1.35254.41309Z"/><path d="M77.91943,37.19971A6.96569,6.96569,0,0,0,74,36h-.4375a1,1,0,0,0,0,2H74a4.97183,4.97183,0,0,1,2.79834.856,1,1,0,0,0,1.12109-1.65625Z"/><path d="M76.59668,47.27344A4.98413,4.98413,0,0,1,74,48h-.72559a1,1,0,0,0,0,2H74a6.98729,6.98729,0,0,0,3.6377-1.01855,1.00013,1.00013,0,0,0-1.041-1.708Z"/><path d="M61.55029,36H59.5a4.474,4.474,0,0,1-1.56494-.2793,1.00006,1.00006,0,1,0-.69629,1.875A6.48,6.48,0,0,0,59.5,38h2.05029a1,1,0,0,0,0-2Z"/><path d="M63.188,26a1,1,0,0,0,1,1H64.5a7.479,7.479,0,0,0,4.03369-1.17627.9999.9999,0,1,0-1.07617-1.68555A5.48223,5.48223,0,0,1,64.5,25h-.312A1,1,0,0,0,63.188,26Z"/><path d="M69.55811,36H65.5542a1,1,0,0,0,0,2h4.00391a1,1,0,0,0,0-2Z"/><path d="M41.895,71.94287a.99985.99985,0,1,0-.25488-1.9834A5.02836,5.02836,0,0,1,41,70H37.76611a1,1,0,0,0,0,2H41A7.02393,7.02393,0,0,0,41.895,71.94287Z"/><path d="M23.09082,77.40381a1.00012,1.00012,0,0,0-1.96.39941,6.49226,6.49226,0,0,0,2.481,3.90576.9998.9998,0,1,0,1.19726-1.60156A4.49658,4.49658,0,0,1,23.09082,77.40381Z"/><path d="M40.24268,49a1,1,0,0,0,1,1h4.0039a1,1,0,0,0,0-2h-4.0039A1,1,0,0,0,40.24268,49Z"/><path d="M26.73389,70.96143a.99889.99889,0,0,0-1.26172-.63868A6.50075,6.50075,0,0,0,21.877,73.23682a1.00012,1.00012,0,0,0,1.7295,1.00488,4.49948,4.49948,0,0,1,2.48876-2.01856A.99987.99987,0,0,0,26.73389,70.96143Z"/><path d="M35.98438,83h4.0039a1,1,0,0,0,0-2h-4.0039a1,1,0,0,0,0,2Z"/><path d="M36,60h3.06689a1,1,0,0,0,0-2H36a4.0348,4.0348,0,0,1-.74561-.06934.99988.99988,0,0,0-.37207,1.96485A6.01514,6.01514,0,0,0,36,60Z"/><path d="M31.333,51.94434a.99793.99793,0,0,0-1.19239.76074,6.01139,6.01139,0,0,0,.8501,4.59863,1.00012,1.00012,0,0,0,1.66895-1.10254,4.00738,4.00738,0,0,1-.56592-3.06445A1.00025,1.00025,0,0,0,31.333,51.94434Z"/><path d="M33.8999,50.59473A3.98913,3.98913,0,0,1,36,50h1.23877a1,1,0,0,0,0-2H36a5.99067,5.99067,0,0,0-3.15186.89355,1,1,0,0,0,1.05176,1.70118Z"/><path d="M34.76221,71a1.00005,1.00005,0,0,0-1-1H29.7583a1,1,0,1,0,0,2h4.00391A1.00005,1.00005,0,0,0,34.76221,71Z"/><path d="M27.97607,83h4.0044a1,1,0,0,0,0-2h-4.0044a1,1,0,1,0,0,2Z"/><path d="M45.97119,65.5415a5.00891,5.00891,0,0,1-1.40039,2.958.99994.99994,0,1,0,1.42774,1.40039,7.01644,7.01644,0,0,0,1.96093-4.14453.99987.99987,0,0,0-1.98828-.21387Z"/><path d="M49.20557,14h4.0039a1,1,0,1,0,0-2h-4.0039a1,1,0,0,0,0,2Z"/><path d="M71.4458,22.334a7.53144,7.53144,0,0,0,.36084-4.53125.9999.9999,0,0,0-1.94824.45118A5.55091,5.55091,0,0,1,70,19.5a5.47286,5.47286,0,0,1-.40576,2.07812,1,1,0,1,0,1.85156.75586Z"/><path d="M54.25439,49a1,1,0,0,0-1-1h-4.0039a1,1,0,0,0,0,2h4.0039A1,1,0,0,0,54.25439,49Z"/><path d="M45.24072,62.34961A1.00012,1.00012,0,0,0,46.936,61.28809a7.038,7.038,0,0,0-3.56836-2.877.99975.99975,0,0,0-.67579,1.88184A5.03127,5.03127,0,0,1,45.24072,62.34961Z"/><path d="M45,14a1,1,0,0,0,0-2H43a1,1,0,0,0,0,2Z"/><path d="M40,13a6,6,0,1,0-6,5.99994A6.00053,6.00053,0,0,0,40,13Zm-3.17163,2.82831A3.99965,3.99965,0,1,1,38,13,3.98336,3.98336,0,0,1,36.82837,15.82831Z"/><path d="M49.70709,78.79285a1,1,0,0,0-1.41418,0L46.5,80.58575l-1.79291-1.7929a1,1,0,1,0-1.41418,1.41424l1.79291,1.79285-1.79291,1.79291a1,1,0,0,0,1.41418,1.41424L46.5,83.41418l1.79291,1.79291a1,1,0,0,0,1.41418-1.41424l-1.79284-1.79291,1.79284-1.79285A1,1,0,0,0,49.70709,78.79285Z"/></g></svg>