<?xml version="1.0" encoding="utf-8"?><!DOCTYPE svg PUBLIC "-//W3C//DTD SVG 1.1//EN" "http://www.w3.org/Graphics/SVG/1.1/DTD/svg11.dtd"><svg version="1.1" xmlns="http://www.w3.org/2000/svg" xmlns:xlink="http://www.w3.org/1999/xlink" x="0px" y="0px" viewBox="12.021 0.254 71.957 125" enable-background="new 12.021 0.254 71.957 100" xml:space="preserve"><path fill="#6366F1" d="M27.186,34.227c2.377-3.805,1.179-8.852-2.673-11.26c-3.845-2.402-8.884-1.25-11.262,2.552
	c-2.377,3.805-1.206,8.842,2.642,11.245C19.746,39.168,24.808,38.029,27.186,34.227"/><path fill="#6366F1" d="M66.701,97.651c0.416,0.712,1.002,1.33,1.758,1.802c2.451,1.53,5.679,0.807,7.208-1.637c1.094-1.753,1.002-3.9-0.028-5.542
	L58.888,60.875l-10.22,2.308L66.701,97.651z"/><path fill="#6366F1" d="M36.144,41.294l12.01,20.386l16.118-3.04c5.541-1.127,8.119,3.455,8.119,3.455l10.685,17.883
	c1.074,1.581,1.239,3.611,0.228,5.225c-1.395,2.233-4.528,2.803-6.977,1.275c-0.765-0.477-1.358-1.084-1.793-1.771l-7.862-13.312
	l-20.204,3.751c-7.81,1.406-11.185-5.181-11.185-5.181l-8.323-14.019l-7.805-12.97l11.395-8.98"/><path fill="#6366F1" d="M30.782,33.818l20.264-2.369c2.178-0.246,4.131,1.485,4.399,3.847c0.266,2.336-1.247,4.465-3.424,4.711l-20.065,2.346"/><path fill="#6366F1" d="M27.662,47.169l-2.228,24.685c-0.246,2.155-2.63,3.672-4.991,3.4c-2.358-0.266-4.068-2.223-3.824-4.374l2.594-27.89"/><path fill="#6366F1" d="M16.029,0.254l-0.2,1.028l27.887,5.446c0.07-0.351,0.18-0.685,0.321-1.004L16.029,0.254z"/><path fill="#6366F1" d="M82.408,1.177L52.941,5.91c0.127,0.323,0.213,0.665,0.269,1.018l29.364-4.717L82.408,1.177z"/><path fill="#6366F1" d="M47.888,12.443v49.591h1.047V12.452c-0.161,0.016-0.317,0.049-0.482,0.049C48.259,12.5,48.076,12.466,47.888,12.443z"/><path fill="#6366F1" d="M52.179,7.093c-0.056-0.356-0.155-0.695-0.303-1.012c-0.603-1.293-1.905-2.197-3.423-2.197c-1.458,0-2.712,0.838-3.344,2.05
	c-0.163,0.312-0.295,0.64-0.366,0.995c-0.047,0.239-0.075,0.486-0.075,0.739c0,1.894,1.403,3.453,3.221,3.728
	c0.186,0.028,0.371,0.058,0.564,0.058c0.165,0,0.323-0.028,0.482-0.049c1.857-0.24,3.302-1.814,3.302-3.736
	C52.237,7.472,52.208,7.282,52.179,7.093z"/></svg>