<svg xmlns="http://www.w3.org/2000/svg" xmlns:xlink="http://www.w3.org/1999/xlink" version="1.1" x="0px" y="0px" viewBox="0 0 100 125" enable-background="new 0 0 100 100" xml:space="preserve"><path fill="#000000" d="M26.425,39.424c4.452,0,8.073-4.412,8.073-9.835c0-3.621-1.603-6.902-4.201-8.631  c-0.186-3.069-1.963-5.434-4.129-5.434c-0.212,0-0.426,0.024-0.639,0.072c-1.513-1.887-3.6-2.964-5.765-2.964  c-3.653,0-6.809,2.948-7.773,7.212C7.985,20.493,5,24.621,5,29.589c0,5.423,3.621,9.835,8.072,9.835c0.64,0,1.268-0.099,1.877-0.277  c0.885,4.885,1.472,11.352,1.472,18.827c0,16.847-2.976,28.587-5.647,28.587c-0.231,0-0.417,0.18-0.417,0.403  s0.187,0.403,0.417,0.403c4.21,0,6.482-15.144,6.482-29.394c0-6.743-0.509-13.685-1.492-19.129c1.603-0.695,3.009-1.987,3.985-3.736  c0.979,1.754,2.391,3.047,3.998,3.741c-0.982,5.444-1.491,12.383-1.491,19.125c0,14.25,2.272,29.394,6.482,29.394  c0.231,0,0.417-0.18,0.417-0.403s-0.187-0.403-0.417-0.403c-2.671,0-5.648-11.74-5.648-28.587c0-7.474,0.587-13.94,1.472-18.825  C25.166,39.325,25.79,39.424,26.425,39.424z"/><path fill="#000000" d="M76.842,42.749c0-0.231-0.191-0.417-0.427-0.417c-0.236,0-0.403,0.187-0.403,0.417  c0,2.272-9.663,4.789-23.765,5.034c-0.195-0.663-0.814-1.151-1.556-1.151c-0.748,0-1.372,0.496-1.562,1.167  c-14.842-0.099-25.11-2.705-25.11-5.05c0-0.231-0.191-0.417-0.427-0.417s-0.427,0.187-0.427,0.417c0,3.74,13.215,5.795,25.964,5.885  c0.15,0.54,0.582,0.962,1.136,1.11v13.433c0,0.231,0.191,0.417,0.427,0.417s0.427-0.187,0.427-0.417V49.744  c0.559-0.149,0.995-0.579,1.141-1.127C64.563,48.394,76.842,46.354,76.842,42.749z"/><path fill="#000000" d="M86.842,40.193c4.498,0,8.158-4.539,8.158-10.117c0-5.11-3.017-9.358-7.066-10.025  c-0.974-4.386-4.164-7.419-7.856-7.419c-2.188,0-4.297,1.107-5.826,3.049c-0.215-0.049-0.431-0.074-0.645-0.074  c-2.188,0-3.985,2.433-4.173,5.59c-2.625,1.779-4.246,5.154-4.246,8.879c0,5.579,3.66,10.117,8.159,10.117  c0.767,0,1.515-0.148,2.234-0.404c0.822,4.804,1.36,11.032,1.36,18.185c0,16.847-2.977,28.587-5.648,28.587  c-0.231,0-0.417,0.18-0.417,0.403s0.187,0.403,0.417,0.403c4.21,0,6.482-15.144,6.482-29.394c0-6.497-0.474-13.175-1.387-18.523  c1.486-0.744,2.785-2.017,3.706-3.697c0.989,1.805,2.416,3.136,4.041,3.849c-0.896,5.323-1.361,11.936-1.361,18.371  c0,14.25,2.271,29.394,6.482,29.394c0.231,0,0.417-0.18,0.417-0.403s-0.187-0.403-0.417-0.403c-2.671,0-5.647-11.74-5.647-28.587  c0-7.094,0.529-13.278,1.339-18.065C85.563,40.091,86.196,40.193,86.842,40.193z"/><path fill="#000000" d="M43.61,55.956c0.448-0.29,0.757-0.737,0.869-1.259c0.112-0.522,0.014-1.056-0.276-1.505  c-0.37-0.572-0.998-0.914-1.679-0.914c-0.385,0-0.759,0.111-1.084,0.32c-0.925,0.598-1.191,1.838-0.593,2.764  c0.37,0.572,0.998,0.913,1.68,0.913C42.911,56.276,43.286,56.165,43.61,55.956z"/><path fill="#000000" d="M56.472,62.52c0,0-6.134-0.7-6.093-0.492l-3.698-5.719l4.247-0.074  c0.345-0.006,0.621-0.291,0.615-0.637c-0.006-0.345-0.315-0.618-0.636-0.615l-5.105,0.088c-0.111,0.002-0.331,0.102-0.345,0.111  l-3.193,2.064c-0.093,0.06-0.158,0.155-0.182,0.263c-0.011,0.053-0.017,0.207-0.017,0.233l-0.01,5.706  c-0.001,0.346,0.279,0.626,0.625,0.627h0.001c0.345,0,0.625-0.279,0.626-0.624l0.007-3.813c0,0,3.984,6.069,4.145,6.069  c0.02,0,5.984-0.003,5.984-0.003v3.513c0,0.461,0.373,0.834,0.834,0.834c0.461,0,0.834-0.374,0.834-0.834V64.87  c0-0.29-0.157-0.533-0.381-0.682h0.908v4.097c0,0.461,0.373,0.834,0.834,0.834s0.834-0.374,0.834-0.834v-4.931  C57.306,62.893,56.933,62.52,56.472,62.52z"/></svg>