<svg xmlns="http://www.w3.org/2000/svg" xmlns:xlink="http://www.w3.org/1999/xlink" version="1.1" x="0px" y="0px" viewBox="0 0 100 125" style="enable-background:new 0 0 100 100;" xml:space="preserve"><g><g><path d="M90.8,42H51.5V6.5C51.5,5.6,50.8,5,50,5H9.2C8.4,5,7.8,5.6,7.8,6.5v87.1c0,0.8,0.7,1.5,1.5,1.5H50h40.8    c0.8,0,1.5-0.7,1.5-1.5V43.4C92.2,42.6,91.6,42,90.8,42z M10.7,7.9h37.9v35.5v48.6h-6.4v-9.8v-1.5l0,0c0-0.8-0.7-1.5-1.5-1.5H18.6    c-0.8,0-1.5,0.7-1.5,1.5l0,0v1.5v9.8h-6.4V7.9z M28.2,82.7v9.4H20v-9.4c0-0.3,0.2-0.5,0.5-0.5h7.2C27.9,82.3,28.2,82.5,28.2,82.7z     M31.5,82.3h7.2c0.3,0,0.5,0.2,0.5,0.5v9.4h-8.1v-9.4C31.1,82.5,31.3,82.3,31.5,82.3z M89.3,92.1H51.5V44.9h37.9V92.1z"/><path d="M19,20.8h5c1.1,0,1.9-0.9,1.9-1.9v-2.1c0-1.1-0.9-1.9-1.9-1.9h-5c-1.1,0-1.9,0.9-1.9,1.9v2.1C17.1,19.9,18,20.8,19,20.8z"/><path d="M35.2,20.8h5c1.1,0,1.9-0.9,1.9-1.9v-2.1c0-1.1-0.9-1.9-1.9-1.9h-5c-1.1,0-1.9,0.9-1.9,1.9v2.1    C33.2,19.9,34.1,20.8,35.2,20.8z"/><path d="M19,33.7h5c1.1,0,1.9-0.9,1.9-1.9v-2.1c0-1.1-0.9-1.9-1.9-1.9h-5c-1.1,0-1.9,0.9-1.9,1.9v2.1C17.1,32.8,18,33.7,19,33.7z"/><path d="M35.2,33.7h5c1.1,0,1.9-0.9,1.9-1.9v-2.1c0-1.1-0.9-1.9-1.9-1.9h-5c-1.1,0-1.9,0.9-1.9,1.9v2.1    C33.2,32.8,34.1,33.7,35.2,33.7z"/><path d="M19,46.6h5c1.1,0,1.9-0.9,1.9-1.9v-2.1c0-1.1-0.9-1.9-1.9-1.9h-5c-1.1,0-1.9,0.9-1.9,1.9v2.1C17.1,45.7,18,46.6,19,46.6z"/><path d="M35.2,46.6h5c1.1,0,1.9-0.9,1.9-1.9v-2.1c0-1.1-0.9-1.9-1.9-1.9h-5c-1.1,0-1.9,0.9-1.9,1.9v2.1    C33.2,45.7,34.1,46.6,35.2,46.6z"/><path d="M19,59.5h5c1.1,0,1.9-0.9,1.9-1.9v-2.1c0-1.1-0.9-1.9-1.9-1.9h-5c-1.1,0-1.9,0.9-1.9,1.9v2.1C17.1,58.6,18,59.5,19,59.5z"/><path d="M35.2,59.5h5c1.1,0,1.9-0.9,1.9-1.9v-2.1c0-1.1-0.9-1.9-1.9-1.9h-5c-1.1,0-1.9,0.9-1.9,1.9v2.1    C33.2,58.6,34.1,59.5,35.2,59.5z"/><path d="M19,72.4h5c1.1,0,1.9-0.9,1.9-1.9v-2.1c0-1.1-0.9-1.9-1.9-1.9h-5c-1.1,0-1.9,0.9-1.9,1.9v2.1C17.1,71.6,18,72.4,19,72.4z"/><path d="M35.2,72.4h5c1.1,0,1.9-0.9,1.9-1.9v-2.1c0-1.1-0.9-1.9-1.9-1.9h-5c-1.1,0-1.9,0.9-1.9,1.9v2.1    C33.2,71.6,34.1,72.4,35.2,72.4z"/><path d="M59.8,59.5h5c1.1,0,1.9-0.9,1.9-1.9v-2.1c0-1.1-0.9-1.9-1.9-1.9h-5c-1.1,0-1.9,0.9-1.9,1.9v2.1    C57.9,58.6,58.8,59.5,59.8,59.5z"/><path d="M76,59.5h5c1.1,0,1.9-0.9,1.9-1.9v-2.1c0-1.1-0.9-1.9-1.9-1.9h-5c-1.1,0-1.9,0.9-1.9,1.9v2.1C74,58.6,74.9,59.5,76,59.5z"/><path d="M59.8,72.4h5c1.1,0,1.9-0.9,1.9-1.9v-2.1c0-1.1-0.9-1.9-1.9-1.9h-5c-1.1,0-1.9,0.9-1.9,1.9v2.1    C57.9,71.6,58.8,72.4,59.8,72.4z"/><path d="M76,72.4h5c1.1,0,1.9-0.9,1.9-1.9v-2.1c0-1.1-0.9-1.9-1.9-1.9h-5c-1.1,0-1.9,0.9-1.9,1.9v2.1C74,71.6,74.9,72.4,76,72.4z"/><path d="M59.8,85.3h5c1.1,0,1.9-0.9,1.9-1.9v-2.1c0-1.1-0.9-1.9-1.9-1.9h-5c-1.1,0-1.9,0.9-1.9,1.9v2.1    C57.9,84.5,58.8,85.3,59.8,85.3z"/><path d="M76,85.3h5c1.1,0,1.9-0.9,1.9-1.9v-2.1c0-1.1-0.9-1.9-1.9-1.9h-5c-1.1,0-1.9,0.9-1.9,1.9v2.1C74,84.5,74.9,85.3,76,85.3z"/></g></g></svg>