<svg xmlns="http://www.w3.org/2000/svg" xmlns:xlink="http://www.w3.org/1999/xlink" xmlns:sketch="http://www.bohemiancoding.com/sketch/ns" viewBox="0 0 40 75" version="1.1" x="0px" y="0px"><title>14 - Carabiner (Solid)</title><desc>Created with Sketch.</desc><g stroke="none" stroke-width="1" fill="none" fill-rule="evenodd" sketch:type="MSPage"><g sketch:type="MSLayerGroup" fill="#000000"><path d="M37.227,5.28 C34.738,1.925 30.915,0 26.737,0 L17.059,0 C9.858,0 4,5.858 4,13.059 L4,16.023 C2.88,16.138 2,17.076 2,18.226 L2,20.035 C0.872,20.203 0,21.169 0,22.344 L0,25.656 C0,26.949 1.052,28 2.344,28 L11.656,28 C12.948,28 14,26.949 14,25.656 L14,22.344 C14,21.169 13.128,20.203 12,20.035 L12,18.226 C12,17.076 11.12,16.138 10,16.023 L10,13.059 C10,9.166 13.166,6 17.059,6 L26.737,6 C28.996,6 31.062,7.04 32.407,8.854 C33.752,10.669 34.148,12.948 33.487,15.125 L23.795,49.055 C22.895,52.013 20.188,54 17.059,54 C13.166,54 10,50.833 10,46.941 L10,44.977 C11.12,44.862 12,43.924 12,42.774 L12,36.965 C13.128,36.797 14,35.831 14,34.656 L14,31.344 C14,30.051 12.948,29 11.656,29 L2.344,29 C1.052,29 0,30.051 0,31.344 L0,34.656 C0,35.831 0.872,36.797 2,36.965 L2,42.774 C2,43.924 2.88,44.862 4,44.977 L4,46.941 C4,54.142 9.858,60 17.059,60 C22.85,60 27.872,56.277 29.56,50.719 L39.233,16.852 C40.446,12.854 39.715,8.636 37.227,5.28" sketch:type="MSShapeGroup"/></g></g></svg>